<svg xmlns="http://www.w3.org/2000/svg" viewBox="0 0 923.56 87.59"><defs><style>.cls-1{fill:#f2f2f2;}</style></defs><title>-Group4-</title><g id="Layer_2" data-name="Layer 2"><g id="Layer_1-2" data-name="Layer 1"><g id="_Group4_" data-name="&lt;Group4&gt;"><path class="cls-1" d="M102.32,21.88Q96.71,17,85.16,17H64.37V33.84H82.72A7.74,7.74,0,0,1,87.42,35a3.5,3.5,0,0,1,1.47,2.91V66.43a3.45,3.45,0,0,1-1.47,2.89,7.9,7.9,0,0,1-4.7,1.11H37.35V64.37H17.06V87h68.1q11.55,0,17.16-4.84T107.93,68V36.1Q107.93,26.76,102.32,21.88Z"/><polygon class="cls-1" points="54.37 17.04 37.34 17.04 37.34 0 17.04 0 17.04 17.04 0 17.04 0 33.78 17.04 33.78 17.04 54.37 37.34 54.37 37.34 33.78 54.37 33.78 54.37 17.04"/><path class="cls-1" d="M115.49,34.84a21.55,21.55,0,0,1,1-7.07,13,13,0,0,1,3.62-5.23,17,17,0,0,1,5.2-3.54,26.4,26.4,0,0,1,7.15-1.79,103.29,103.29,0,0,1,10.36-.67q6.06-.13,18.71-.13t18.69.13a100.9,100.9,0,0,1,10.27.67,25.72,25.72,0,0,1,7,1.79,16.66,16.66,0,0,1,5.11,3.54,12.88,12.88,0,0,1,3.63,5.23,21.82,21.82,0,0,1,1,7.07V68.91a23.14,23.14,0,0,1-1,7.23,12.39,12.39,0,0,1-3.63,5.32,17,17,0,0,1-5.19,3.44,28.51,28.51,0,0,1-7.22,1.78c-2.88.38-6.43.62-10.65.74s-10.32.17-18.31.17-14.12-.06-18.28-.17-7.68-.36-10.58-.74a26.46,26.46,0,0,1-7.1-1.78,19.32,19.32,0,0,1-5.2-3.44,12.45,12.45,0,0,1-3.62-5.32,22.85,22.85,0,0,1-1-7.23Zm19.68,31.33a3.35,3.35,0,0,0,1.33,3.06c.88.57,2.57.85,5.06.85h39.59A9.35,9.35,0,0,0,186.28,69a3.28,3.28,0,0,0,1.65-2.8V37.88c0-1.68-.46-2.82-1.37-3.41s-2.61-.9-5.1-.9h-39.9q-3.48,0-4.93,1.16a3.8,3.8,0,0,0-1.46,3.15Z"/><path class="cls-1" d="M214.78,46.48v-10q0-9.6,5.57-14.51T237.47,17h60.19V34.23H239.9a8.2,8.2,0,0,0-4.65,1.06A3.17,3.17,0,0,0,233.73,38l-.26,5.78V60.3l.26,5.52a3.74,3.74,0,0,0,1.48,3.11,7.7,7.7,0,0,0,4.69,1.15h57.76V87H237.47q-11.57,0-17.12-4.89t-5.57-14.4V46.48Z"/><path class="cls-1" d="M356.93,87H335.16V33.23H304.44V17h82.22V33.23H356.93Z"/><path class="cls-1" d="M393.43,34.84a21.82,21.82,0,0,1,1-7.07A12.88,12.88,0,0,1,398,22.54,16.87,16.87,0,0,1,403.23,19a26.5,26.5,0,0,1,7.15-1.79,103.5,103.5,0,0,1,10.36-.67q6.08-.13,18.71-.13t18.69.13a101.12,101.12,0,0,1,10.28.67,25.82,25.82,0,0,1,7,1.79,16.5,16.5,0,0,1,5.1,3.54,12.88,12.88,0,0,1,3.63,5.23,21.82,21.82,0,0,1,1,7.07V68.91a23.14,23.14,0,0,1-1,7.23,12.39,12.39,0,0,1-3.63,5.32,16.73,16.73,0,0,1-5.19,3.44,28.42,28.42,0,0,1-7.21,1.78c-2.89.38-6.43.62-10.65.74s-10.32.17-18.32.17-14.11-.06-18.27-.17-7.69-.36-10.58-.74a26.44,26.44,0,0,1-7.11-1.78A19.12,19.12,0,0,1,398,81.46a12.39,12.39,0,0,1-3.63-5.32,23.14,23.14,0,0,1-1-7.23Zm19.69,31.33a3.34,3.34,0,0,0,1.32,3.06c.89.57,2.57.85,5.07.85H459.1A9.33,9.33,0,0,0,464.22,69a3.29,3.29,0,0,0,1.66-2.8V37.88c0-1.68-.46-2.82-1.37-3.41s-2.62-.9-5.11-.9H419.51q-3.48,0-4.94,1.16a3.79,3.79,0,0,0-1.45,3.15Z"/><path class="cls-1" d="M554.68,47a6.33,6.33,0,0,0,2.5-5.39,6.37,6.37,0,0,0-2.41-5.12,8.53,8.53,0,0,0-5.63-2H514.55V87H492.73V17h58A59.34,59.34,0,0,1,563,18.08a19.42,19.42,0,0,1,8,3.52,14.39,14.39,0,0,1,4.59,6.65,32.41,32.41,0,0,1,1.47,10.58A42.24,42.24,0,0,1,576,49.59a16.41,16.41,0,0,1-3.65,7,14.47,14.47,0,0,1-6.63,3.91,36.61,36.61,0,0,1-10.36,1.24v.39L583.86,87H559.65L517.54,48.87h31.34A9.41,9.41,0,0,0,554.68,47Z"/><path class="cls-1" d="M724.26,87,695.71,62.17v-.39a36.68,36.68,0,0,0,10.37-1.24,14.57,14.57,0,0,0,6.63-3.91,16.52,16.52,0,0,0,3.65-7,42.24,42.24,0,0,0,1.17-10.76,32.12,32.12,0,0,0-1.48-10.58,14.3,14.3,0,0,0-4.58-6.65,19.48,19.48,0,0,0-8-3.52c-.73-.16-1.51-.29-2.32-.42q-1.57,1.5-3.17,3a247.2,247.2,0,0,0-19.77,21.71,3.17,3.17,0,0,1,1,1.77c.24,1.5-1,2.51-.65,3.09.53.78,3.13-.56,3.79.31.29.37.11,1-.14,1.55a30.57,30.57,0,0,0-.55,18.67l8,16.58a5.33,5.33,0,0,1,.44,2.6Z"/><path class="cls-1" d="M674.2,85.59a5.42,5.42,0,0,1-1.64-1.29c-.9-1.06-.67-1.69-1.56-2.63s-1.39-.64-1.92-1.51-.12-1.32-.69-2-1.28-.49-1.8-1.27-.07-1-.51-1.66-1-.48-1.75-1.23-.36-1.33-1.15-2.17-1.21-.5-1.7-1.21,0-1.28-.5-2.14c-.6-1.07-1.63-.69-2.28-1.75s0-1.63-.66-2.36-1.06-.25-1.59-.83c-.73-.8,0-1.74-.76-2.55-.52-.6-1-.25-1.65-.93s-.28-1.11-.87-1.72-1.23-.29-1.74-.88c-.68-.8.06-1.87-.61-2.5s-1.25,0-1.69-.55.09-1.26-.33-1.92a1.93,1.93,0,0,0-1.49-.69,19.52,19.52,0,0,1-1.84-3.23,21.72,21.72,0,0,1-.89-2.42,15.6,15.6,0,0,1,1.62-3.22,15.17,15.17,0,0,1,2.94-3.31L661,34a1,1,0,0,1,1.14-.69,1,1,0,0,1,.61.54,86.59,86.59,0,0,0,13.1-12.89c1.14-1.39,2.12-2.68,3-3.92H633.14V87h42.31A16.27,16.27,0,0,1,674.2,85.59Z"/><path class="cls-1" d="M750.6,17V63.65A4,4,0,0,0,752.31,67q1.73,1.29,5.37,1.29h31c2.6,0,4.49-.43,5.65-1.29a4,4,0,0,0,1.73-3.36V17h21.47V66.69a27.31,27.31,0,0,1-1,8,15.17,15.17,0,0,1-3.89,6.15,35.79,35.79,0,0,1-5,3.93,16.48,16.48,0,0,1-5.52,1.82,69.56,69.56,0,0,1-9.69.81q-6.17.17-19,.17t-19-.17a70,70,0,0,1-9.76-.81,17.06,17.06,0,0,1-5.6-1.86,33.35,33.35,0,0,1-5-3.89,15.17,15.17,0,0,1-3.89-6.15,27.31,27.31,0,0,1-1-8V17Z"/><path class="cls-1" d="M845.59,86.72H825V17h35.59l42,51.89.35.91V17h20.56v69.7H888.22L845.85,34.49l-.26-.65Z"/></g></g></g></svg>